# xmcd
#
# Track frame offsets:
#	150
#	16712
#	31586
#	48986
#	60994
#	73005
#	90427
#	108218
#	122510
#	136638
#
# Disc length: 2038 seconds
#
# Revision: 1
# Processed by: cddbd v1.5.2PL0 Copyright (c) Steve Scherf et al.
# Submitted via: audiograbber 1.83.01
#
DISCID=6807f40a
DTITLE=Marc Corey Lee - Jetset Deluxe
DYEAR=2005
DGENRE=Country
TTITLE0=In Vain
TTITLE1=Ghost In Paradise
TTITLE2=Please
TTITLE3=Mister Heartache
TTITLE4=Just One Moment
TTITLE5=Cowboys And Angels
TTITLE6=Heaven
TTITLE7=South Of San Antone
TTITLE8=One More Time
TTITLE9=The First Thing
EXTD=
EXTT0=
EXTT1=
EXTT2=
EXTT3=
EXTT4=
EXTT5=
EXTT6=
EXTT7=
EXTT8=
EXTT9=
PLAYORDER=
